# xmcd
#
# Track frame offsets:
# 150
# 12053
# 17858
# 27688
# 40820
# 47673
# 56323
# 64628
# 72670
# 83023
# 94135
# 104783
# 116720
# 123298
# 131995
# 141335
# 152633
# 161568
# 171088
# 180475
#
# Disc length: 2547 seconds
#
#
# Revision: 0
# Processed by: cddbd v1.4PL0 Copyright (c) Steve Scherf et al.
# Submitted via: FreeRIP 2.00 
#
DISCID=1809f114
DTITLE=Hank Williams Sr - Hank Williams Sr - The Complete Recordings Disc 5
DYEAR=1900
DGENRE=Country
TTITLE0=Happy Rovin' Cowboy (1939-1940)
TTITLE1=Freight Train Blues (Late 1940)
TTITLE2=San Antonio Rose (Late 1940)
TTITLE3=I'm Not Coming Home Any More (4-07-42)
TTITLE4=I Ain't Gonna Love You Any More (Circa 1942)
TTITLE5=Won't You Sometimes Think Of Me (1947-1948)
TTITLE6=Why Should I Cry (1947-1948)
TTITLE7=I Watched My Dream World Crumble Like Clay (1947-1948)
TTITLE8=I Told A Lie To My Heart (1947-1948)
TTITLE9=Mother Is Gone (1947-1948)
TTITLE10=In My Dreams You Still Belong To Me (1947-1948)
TTITLE11=We're Getting Closer To The Grave Each Day (Spring 1949)
TTITLE12=(I'm) Going Home (Spring 1949)
TTITLE13=Calling You (1947-1948)
TTITLE14=Pan American (Dec 1946)
TTITLE15=Wealth Won't Save Your Soul (Dec 1946)
TTITLE16=Honky Tonk Blues (1947-1948)
TTITLE17=A Home In Heaven (1947-1948)
TTITLE18=You Broke Your Own Heart (1947)
TTITLE19=I'm So Tired Of It All (1947)
EXTD=
EXTT0=
EXTT1=
EXTT2=
EXTT3=
EXTT4=
EXTT5=
EXTT6=
EXTT7=
EXTT8=
EXTT9=
EXTT10=
EXTT11=
EXTT12=
EXTT13=
EXTT14=
EXTT15=
EXTT16=
EXTT17=
EXTT18=
EXTT19=
PLAYORDER=
